<svg width="575" height="560" viewBox="0 0 575 560" fill="none" xmlns="http://www.w3.org/2000/svg">
<path opacity="0.0526316" d="M44.6752 451.945C56.8077 468.087 95.5844 495.097 153.631 474.009C226.19 447.648 254.253 377.774 319.013 341.543C366.81 314.802 495.245 274.662 569.096 319.017" stroke="#5996C5" stroke-opacity="0.56" stroke-width="2.18354"/>
<path opacity="0.105263" d="M32.7081 418.106C43.0869 435.427 78.8279 466.343 138.761 451.438C213.678 432.806 248.891 366.248 317.083 336.984C367.414 315.386 499.34 288.891 568.151 340.723" stroke="#5996C5" stroke-opacity="0.56" stroke-width="2.18354"/>
<path opacity="0.157895" d="M23.6669 383.811C32.1783 402.122 64.4919 436.605 125.655 428.046C202.109 417.347 244.086 354.834 314.964 332.859C367.276 316.64 501.25 304.081 564.265 362.821" stroke="#5996C5" stroke-opacity="0.56" stroke-width="2.18354"/>
<path opacity="0.210526" d="M17.5842 349.368C24.135 368.468 52.6672 406.139 114.39 404.021C191.543 401.372 239.825 343.59 312.611 329.144C366.333 318.482 500.885 319.995 557.415 385.001" stroke="#5996C5" stroke-opacity="0.56" stroke-width="2.18354"/>
<path opacity="0.263158" d="M14.459 315.087C18.9774 334.767 43.4156 375.214 105.022 379.559C182.029 384.99 236.086 332.571 309.984 325.812C364.525 320.824 498.182 336.393 547.608 406.952" stroke="#5996C5" stroke-opacity="0.56" stroke-width="2.18354"/>
<path opacity="0.315789" d="M14.2575 281.276C16.6939 301.321 36.7703 344.101 97.5848 354.862C173.603 368.312 232.843 321.83 307.042 322.833C361.807 323.574 493.104 353.029 534.884 428.367" stroke="#5996C5" stroke-opacity="0.56" stroke-width="2.18354"/>
<path opacity="0.368421" d="M16.9152 248.237C17.2429 268.427 32.7377 313.072 92.0942 330.13C166.29 351.453 230.064 311.418 303.752 320.172C358.139 326.632 485.638 369.65 519.314 448.943" stroke="#5996C5" stroke-opacity="0.56" stroke-width="2.18354"/>
<path opacity="0.421053" d="M22.3352 216.267C20.5508 236.381 31.294 282.4 88.5423 305.57C160.103 334.531 227.712 301.382 300.081 317.79C353.495 329.9 475.799 386.01 501.002 468.388" stroke="#5996C5" stroke-opacity="0.56" stroke-width="2.18354"/>
<path opacity="0.473684" d="M30.3908 185.648C26.5137 205.465 32.3877 252.355 86.9005 281.381C155.042 317.664 225.746 291.764 296.003 315.647C347.859 333.274 463.628 401.86 480.082 486.422" stroke="#5996C5" stroke-opacity="0.56" stroke-width="2.18354"/>
<path opacity="0.526316" d="M40.927 156.647C34.9997 175.95 35.9402 223.198 87.1203 257.763C151.095 300.97 224.12 282.602 291.496 313.698C341.225 336.649 449.19 416.961 456.715 502.779" stroke="#5996C5" stroke-opacity="0.56" stroke-width="2.18354"/>
<path opacity="0.578947" d="M53.7608 129.515C45.8483 148.092 41.845 195.179 89.1315 234.905C148.24 284.563 222.784 273.929 286.541 311.897C333.598 339.92 432.577 431.077 431.091 517.212" stroke="#5996C5" stroke-opacity="0.56" stroke-width="2.18354"/>
<path opacity="0.631579" d="M68.6828 104.482C58.8718 122.131 49.9685 168.541 92.8435 212.993C146.437 268.557 221.685 265.773 281.124 310.197C324.994 342.986 413.902 443.99 403.42 529.498" stroke="#5996C5" stroke-opacity="0.56" stroke-width="2.18354"/>
<path opacity="0.684211" d="M85.4639 81.7561C73.8618 98.2827 60.156 143.508 98.1498 192.198C145.642 253.059 220.768 258.156 275.238 308.55C315.44 345.745 393.304 455.489 373.941 539.433" stroke="#5996C5" stroke-opacity="0.56" stroke-width="2.18354"/>
<path opacity="0.736842" d="M103.853 61.5165C90.5865 76.7398 72.2284 120.285 104.925 172.679C145.795 238.172 219.977 251.093 268.88 306.905C304.975 348.098 370.94 465.38 342.909 546.84" stroke="#5996C5" stroke-opacity="0.56" stroke-width="2.18354"/>
<path opacity="0.789474" d="M123.58 43.9204C108.795 57.6736 85.9861 99.0613 113.026 154.586C146.827 223.992 219.252 244.597 262.054 305.215C293.644 349.955 346.989 473.49 310.597 551.574" stroke="#5996C5" stroke-opacity="0.56" stroke-width="2.18354"/>
<path opacity="0.842105" d="M144.362 29.0907C128.221 41.2232 101.21 80 122.299 138.047C148.659 210.606 218.534 238.668 254.764 303.428C281.505 351.226 321.645 479.66 277.29 553.512" stroke="#5996C5" stroke-opacity="0.56" stroke-width="2.18354"/>
<path opacity="0.894737" d="M165.903 17.1231C148.582 27.5019 117.666 63.2429 132.571 123.176C151.203 198.093 217.761 233.306 247.025 301.498C268.623 351.829 295.118 483.755 243.286 552.566" stroke="#5996C5" stroke-opacity="0.56" stroke-width="2.18354"/>
<path opacity="0.947368" d="M187.901 8.08295C169.59 16.5944 135.108 48.908 143.667 110.071C154.365 186.525 216.878 228.502 238.853 299.38C255.072 351.692 267.632 485.666 208.891 548.681" stroke="#5996C5" stroke-opacity="0.56" stroke-width="2.18354"/>
<path d="M210.048 2C190.947 8.55076 153.276 37.083 155.395 98.8057C158.043 175.959 215.826 224.241 230.272 297.027C240.934 350.748 239.421 485.3 174.415 541.831" stroke="#5996C5" stroke-opacity="0.56" stroke-width="2.18354"/>
</svg>
