<svg width="20" height="20" viewBox="0 0 20 20" fill="none" xmlns="http://www.w3.org/2000/svg">
<path d="M1.66669 9.99967C1.66669 6.85698 1.66669 5.28563 2.643 4.30932C3.61931 3.33301 5.19066 3.33301 8.33335 3.33301H11.6667C14.8094 3.33301 16.3807 3.33301 17.357 4.30932C18.3334 5.28563 18.3334 6.85698 18.3334 9.99967C18.3334 13.1424 18.3334 14.7137 17.357 15.69C16.3807 16.6663 14.8094 16.6663 11.6667 16.6663H8.33335C5.19066 16.6663 3.61931 16.6663 2.643 15.69C1.66669 14.7137 1.66669 13.1424 1.66669 9.99967Z" stroke="black" stroke-width="1.5"/>
<path d="M5 6.66699L6.79908 8.16623C8.32961 9.44167 9.09488 10.0794 10 10.0794C10.9051 10.0794 11.6704 9.44167 13.2009 8.16622L15 6.66699" stroke="black" stroke-width="1.5" stroke-linecap="round"/>
</svg>
