<svg width="20" height="20" viewBox="0 0 20 20" fill="none" xmlns="http://www.w3.org/2000/svg">
<path d="M8.36464 4.42982L8.90548 5.39892C9.39357 6.27349 9.19763 7.42078 8.42891 8.18951C8.4289 8.18951 8.42891 8.18951 8.4289 8.18951C8.42879 8.18962 7.49656 9.12207 9.18707 10.8126C10.8769 12.5024 11.8093 11.5716 11.8101 11.5708C11.8102 11.5707 11.8102 11.5707 11.8102 11.5707C12.5789 10.802 13.7262 10.6061 14.6007 11.0942L15.5698 11.635C16.8904 12.372 17.0464 14.224 15.8856 15.3848C15.1881 16.0823 14.3336 16.6251 13.3891 16.6609C11.799 16.7212 9.09854 16.3187 6.38973 13.6099C3.68092 10.9011 3.27849 8.20069 3.33877 6.61058C3.37458 5.66601 3.91732 4.81154 4.61482 4.11403C5.77561 2.95324 7.62762 3.10921 8.36464 4.42982Z" stroke="black" stroke-width="1.5" stroke-linecap="round"/>
</svg>
