<svg width="20" height="20" viewBox="0 0 20 20" fill="none" xmlns="http://www.w3.org/2000/svg">
<g clip-path="url(#clip0_84_1064)">
<path d="M5.00002 14.9856C3.70548 14.9466 2.93334 14.8022 2.39892 14.2678C1.66669 13.5355 1.66669 12.357 1.66669 10C1.66669 7.64298 1.66669 6.46447 2.39892 5.73223C3.13115 5 4.30966 5 6.66669 5H13.3334C15.6904 5 16.8689 5 17.6011 5.73223C18.3334 6.46447 18.3334 7.64298 18.3334 10C18.3334 12.357 18.3334 13.5355 17.6011 14.2678C17.0667 14.8022 16.2946 14.9466 15 14.9856" stroke="black" stroke-width="1.5"/>
<path d="M7.5 8.33301H5" stroke="black" stroke-width="1.5" stroke-linecap="round"/>
<path d="M15.8333 12.5L4.16665 12.5" stroke="black" stroke-width="1.5" stroke-linecap="round"/>
<path d="M14.2678 2.39923L13.7374 2.92956V2.92956L14.2678 2.39923ZM5.73223 2.39923L6.26256 2.92956L6.26256 2.92956L5.73223 2.39923ZM5.73223 17.6014L6.26256 17.0711H6.26256L5.73223 17.6014ZM15.75 12.5003C15.75 12.0861 15.4142 11.7503 15 11.7503C14.5858 11.7503 14.25 12.0861 14.25 12.5003H15.75ZM5.75 12.5003C5.75 12.0861 5.41421 11.7503 5 11.7503C4.58579 11.7503 4.25 12.0861 4.25 12.5003H5.75ZM14.25 13.3337C14.25 14.5334 14.2484 15.3577 14.1652 15.9769C14.0848 16.5745 13.941 16.8676 13.7374 17.0711L14.7981 18.1318C15.3268 17.6031 15.5491 16.9407 15.6518 16.1768C15.7516 15.4344 15.75 14.491 15.75 13.3337H14.25ZM10 19.0837C11.1573 19.0837 12.1007 19.0853 12.8431 18.9854C13.6071 18.8827 14.2694 18.6604 14.7981 18.1318L13.7374 17.0711C13.5339 17.2746 13.2409 17.4185 12.6432 17.4988C12.0241 17.5821 11.1997 17.5837 10 17.5837V19.0837ZM10 2.41699C11.1997 2.41699 12.0241 2.41859 12.6432 2.50183C13.2409 2.58218 13.5339 2.72602 13.7374 2.92956L14.7981 1.86889C14.2694 1.3402 13.6071 1.11792 12.8431 1.01521C12.1007 0.915399 11.1573 0.916992 10 0.916992V2.41699ZM10 0.916992C8.84269 0.916992 7.89926 0.915399 7.15688 1.01521C6.39293 1.11792 5.7306 1.3402 5.2019 1.8689L6.26256 2.92956C6.4661 2.72602 6.75914 2.58218 7.35676 2.50183C7.97595 2.41859 8.80029 2.41699 10 2.41699V0.916992ZM4.25 13.3337C4.25 14.491 4.24841 15.4344 4.34822 16.1768C4.45093 16.9407 4.67321 17.6031 5.2019 18.1318L6.26256 17.0711C6.05902 16.8676 5.91519 16.5745 5.83484 15.9769C5.75159 15.3577 5.75 14.5334 5.75 13.3337H4.25ZM10 17.5837C8.80029 17.5837 7.97595 17.5821 7.35676 17.4988C6.75914 17.4185 6.4661 17.2746 6.26256 17.0711L5.2019 18.1318C5.7306 18.6604 6.39293 18.8827 7.15689 18.9854C7.89926 19.0853 8.84269 19.0837 10 19.0837V17.5837ZM15.7352 4.97774C15.6966 3.69444 15.5632 2.63403 14.7981 1.86889L13.7374 2.92956C14.0411 3.23326 14.1966 3.71713 14.2359 5.02291L15.7352 4.97774ZM5.7641 5.02291C5.80344 3.71713 5.95886 3.23326 6.26256 2.92956L5.2019 1.8689C4.43677 2.63403 4.30344 3.69444 4.26478 4.97774L5.7641 5.02291ZM15.75 13.3337V12.5003H14.25V13.3337H15.75ZM5.75 13.3337V12.5003H4.25V13.3337H5.75Z" fill="black"/>
<circle cx="14.1666" cy="8.33333" r="0.833333" fill="black"/>
</g>
<defs>
<clipPath id="clip0_84_1064">
<rect width="20" height="20" fill="white"/>
</clipPath>
</defs>
</svg>
