<svg width="18" height="18" viewBox="0 0 18 18" fill="none" xmlns="http://www.w3.org/2000/svg">
<path d="M9 16.5C11.2782 16.5 13.125 14.6532 13.125 12.375C13.125 11.0727 12.5215 9.91137 11.5789 9.15539C11.3812 8.99679 11.25 8.76425 11.25 8.51077V3.75C11.25 2.50736 10.2426 1.5 9 1.5C7.75736 1.5 6.75 2.50736 6.75 3.75V8.51077C6.75 8.76425 6.61879 8.99679 6.42105 9.15539C5.47849 9.91137 4.875 11.0727 4.875 12.375C4.875 14.6532 6.72183 16.5 9 16.5Z" stroke="#8A8A8A"/>
<path d="M10.8748 12.375C10.8748 13.4105 10.0354 14.25 8.99983 14.25C7.9643 14.25 7.12483 13.4105 7.12483 12.375C7.12483 11.3395 7.9643 10.5 8.99983 10.5C10.0354 10.5 10.8748 11.3395 10.8748 12.375Z" stroke="#8A8A8A"/>
<path d="M9 10.5V3.75" stroke="#8A8A8A" stroke-linecap="round"/>
</svg>
