<svg width="18" height="18" viewBox="0 0 18 18" fill="none" xmlns="http://www.w3.org/2000/svg">
<path d="M17.6896 14.8966H0.310359C0.138972 14.8966 0 14.7576 0 14.5862V3.41387C0 3.24249 0.138972 3.10352 0.310359 3.10352H17.6896C17.861 3.10352 18 3.24249 18 3.41387V14.5862C18 14.7577 17.861 14.8966 17.6896 14.8966Z" fill="#32A071"/>
<path d="M5.58638 3.10352H2.48279V14.8967H5.58638V3.10352Z" fill="#FF4B55"/>
<path d="M5.27598 4.44853L4.6553 4.96579H3.4139L2.79321 4.44853V3.93128L3.4139 3.41406H4.6553L5.27598 3.93128V4.44853Z" fill="#F5F5F5"/>
<path d="M5.27586 8.79326L4.65517 9.31055H3.41377L2.79309 8.79326V8.27604L3.41377 7.75879H4.65517L5.27586 8.27604V8.79326Z" fill="#73AF00"/>
<path d="M5.27586 6.62041L4.65517 7.13766H3.41377L2.79309 6.62041V6.10319L3.41377 5.58594H4.65517L5.27586 6.10319V6.62041Z" fill="#73AF00"/>
<path d="M5.27586 10.9651L4.65517 11.4824H3.41377L2.79309 10.9651V10.448L3.41377 9.93066H4.65517L5.27586 10.448V10.9651Z" fill="#73AF00"/>
<path d="M2.4834 4.65527L3.10408 5.27596L2.4834 5.89664V4.65527Z" fill="#FFB400"/>
<path d="M5.58687 5.89664L4.96619 5.27596L5.58687 4.65527V5.89664Z" fill="#FFB400"/>
<path d="M2.4834 6.82812L3.10408 7.44881L2.4834 8.06949V6.82812Z" fill="#FFB400"/>
<path d="M5.58687 8.06949L4.96619 7.44881L5.58687 6.82812V8.06949Z" fill="#FFB400"/>
<path d="M2.4834 9L3.10408 9.62068L2.4834 10.2414V9Z" fill="#FFB400"/>
<path d="M5.58687 10.2414L4.96619 9.62068L5.58687 9V10.2414Z" fill="#FFB400"/>
<path d="M2.4834 11.1729L3.10408 11.7935L2.4834 12.4142V11.1729Z" fill="#FFB400"/>
<path d="M5.58687 12.4142L4.96619 11.7935L5.58687 11.1729V12.4142Z" fill="#FFB400"/>
<path d="M2.4834 3.10352H3.10408L2.4834 3.7242V3.10352Z" fill="#FFB400"/>
<path d="M5.58687 3.7242L4.96619 3.10352H5.58687V3.7242Z" fill="#FFB400"/>
<path d="M4.19024 5.58594H3.87988V7.13773H4.19024V5.58594Z" fill="#FFB400"/>
<path d="M4.65506 6.20703H3.4137V6.51739H4.65506V6.20703Z" fill="#FF4B55"/>
<path d="M4.96523 5.84552L4.65491 5.58691V7.13864L4.96523 6.87999V5.84552Z" fill="#FFB400"/>
<path d="M3.10352 6.87996L3.41384 7.1386V5.58691L3.10352 5.84549V6.87996Z" fill="#FFB400"/>
<path d="M4.03446 3.41406H3.41381L2.79309 3.93128V4.18992H4.03446V3.41406Z" fill="#FFB400"/>
<path d="M4.03442 4.96531H4.65514L5.27582 4.44806V4.18945H4.03442V4.96531Z" fill="#FFB400"/>
<path d="M4.03438 4.65467L3.4137 4.191L4.03438 3.72363L4.6551 4.191L4.03438 4.65467Z" fill="#FF4B55"/>
<path d="M4.03467 4.65496L4.65539 4.19128L4.65296 4.18945H4.03467V4.65496Z" fill="#73AF00"/>
<path d="M4.03521 4.18917V3.72363L3.41699 4.18917H4.03521Z" fill="#73AF00"/>
<path d="M4.65506 8.06934H3.4137V9.00038H4.65506V8.06934Z" fill="#FF4B55"/>
<path d="M4.96539 8.37891H4.65503V8.68926H4.96539V8.37891Z" fill="#FFB400"/>
<path d="M4.18951 8.37891H3.87915V8.68926H4.18951V8.37891Z" fill="#F5F5F5"/>
<path d="M4.18951 10.2412H3.87915V10.5516H4.18951V10.2412Z" fill="#FF4B55"/>
<path d="M4.6546 10.5518H4.34424V10.8621H4.6546V10.5518Z" fill="#FFB400"/>
<path d="M3.72369 10.5518H3.41333V10.8621H3.72369V10.5518Z" fill="#FFB400"/>
<path d="M4.18951 10.8613H3.87915V11.1717H4.18951V10.8613Z" fill="#FF4B55"/>
<path d="M3.414 8.37891H3.10364V8.68926H3.414V8.37891Z" fill="#FFB400"/>
<path d="M5.27598 13.138L4.6553 13.6552H3.4139L2.79321 13.138V12.6208L3.4139 12.1035H4.6553L5.27598 12.6208V13.138Z" fill="#F5F5F5"/>
<path d="M4.03446 12.1035H3.41381L2.79309 12.6208V12.8794H4.03446V12.1035Z" fill="#FFB400"/>
<path d="M4.03442 13.6548H4.65514L5.27582 13.1375V12.8789H4.03442V13.6548Z" fill="#FFB400"/>
<path d="M4.6551 13.0347L4.03438 13.3451L3.4137 13.0347V12.7244L4.03438 12.4141L4.6551 12.7244V13.0347Z" fill="#FF4B55"/>
<path d="M9.84401 4.79263C9.81096 4.77639 9.78105 4.81939 9.80787 4.84466C10.1591 5.17608 10.381 5.64151 10.381 6.16067C10.381 7.18044 9.56132 7.9986 8.55339 7.9986C8.36735 7.9986 8.18815 7.96959 8.01912 7.91675C7.98411 7.90582 7.96143 7.95279 7.9916 7.97374C8.28628 8.1786 8.64146 8.30104 9.0292 8.30104C10.0504 8.30104 10.885 7.48278 10.885 6.44821C10.885 5.72111 10.4582 5.09459 9.84401 4.79263Z" fill="#F5F5F5"/>
<path d="M7.3185 5.99019L7.2426 6.20496L7.4212 6.34632C7.44433 6.36464 7.43086 6.40183 7.40137 6.40106L7.17366 6.39519L7.09442 6.60872C7.08415 6.63639 7.0446 6.63506 7.03624 6.60679L6.97144 6.38844L6.74384 6.37905C6.71434 6.37785 6.70341 6.33981 6.7277 6.32312L6.91537 6.19402L6.85395 5.97465C6.846 5.94624 6.87877 5.92406 6.90218 5.94202L7.08296 6.08061L7.27263 5.9544C7.29709 5.93805 7.32831 5.96238 7.3185 5.99019Z" fill="#F5F5F5"/>
<path d="M8.24062 6.45601L8.16472 6.67078L8.34331 6.81214C8.36645 6.83046 8.35298 6.86765 8.32349 6.86688L8.09578 6.86101L8.01654 7.07454C8.00627 7.10221 7.96672 7.10088 7.95835 7.07261L7.89356 6.85426L7.66596 6.84487C7.63646 6.84367 7.62553 6.80564 7.64982 6.78894L7.83749 6.65984L7.77607 6.44047C7.76812 6.41206 7.80089 6.38988 7.8243 6.40784L8.00508 6.54643L8.19474 6.42022C8.21925 6.40391 8.25043 6.42823 8.24062 6.45601Z" fill="#F5F5F5"/>
<path d="M8.23147 5.49605L8.15557 5.71082L8.33416 5.85218C8.35729 5.87049 8.34383 5.90769 8.31433 5.90692L8.08662 5.90104L8.00738 6.11458C7.99712 6.14225 7.95757 6.14092 7.9492 6.11265L7.88441 5.89429L7.6568 5.88491C7.62731 5.88371 7.61637 5.84567 7.64067 5.82897L7.82833 5.69988L7.76691 5.48051C7.75897 5.4521 7.79173 5.42992 7.81515 5.44788L7.99592 5.58647L8.18559 5.46026C8.21009 5.44394 8.24131 5.46827 8.23147 5.49605Z" fill="#F5F5F5"/>
<path d="M8.26284 4.57026L8.18694 4.78503L8.36553 4.9264C8.38866 4.94471 8.3752 4.98191 8.3457 4.98114L8.118 4.97526L8.03875 5.1888C8.02849 5.21647 7.98894 5.21513 7.98057 5.18687L7.91578 4.96851L7.68818 4.95913C7.65868 4.95793 7.64775 4.91989 7.67204 4.90319L7.8597 4.7741L7.79829 4.55473C7.79034 4.52632 7.82311 4.50414 7.84652 4.5221L8.02729 4.66069L8.21696 4.53448C8.24143 4.51813 8.27265 4.54246 8.26284 4.57026Z" fill="#F5F5F5"/>
<path d="M9.16665 5.03609L9.09075 5.25085L9.26934 5.39222C9.29247 5.41053 9.27901 5.44773 9.24951 5.44696L9.0218 5.44108L8.94256 5.65462C8.9323 5.68229 8.89275 5.68096 8.88438 5.65269L8.81959 5.43433L8.59199 5.42495C8.56249 5.42375 8.55156 5.38571 8.57585 5.36901L8.76351 5.23992L8.70209 5.02055C8.69415 4.99214 8.72691 4.96996 8.75033 4.98792L8.9311 5.12651L9.12077 5.0003C9.14524 4.98395 9.17646 5.00828 9.16665 5.03609Z" fill="#F5F5F5"/>
</svg>
